# xmcd
#
# Track frame offsets:
#	150
#	20371
#	37661
#	52510
#	77881
#	95854
#	110682
#	129208
#	145437
#	162819
#	180080
#	197083
#	213578
#	239765
#	252547
#	265580
#	282007
#	313390
#	329874
#	348572
#
# Disc length: 4847 seconds
#
# Revision: 2
# Processed by: cddbd v1.5.2PL0 Copyright (c) Steve Scherf et al.
# Submitted via: audiograbber 1.83.01
#
DISCID=2712ed14
DTITLE=Various Artist - Die Ultimative Chartshow - Die Erfolgreichsten Disco C
DTITLE=lassics Aller Zeiten [CD 02)
DYEAR=2007
DGENRE=Disco
TTITLE0=Haddaway - What Is Love (7'' Mix)
TTITLE1=DJ Bobo - Everybody (Radio Version)
TTITLE2=Double You - Please Don't Go
TTITLE3=Culture Beat - Mr. Vain
TTITLE4=Dr. Alban - Sing Hallelujah! (Short)
TTITLE5=2 Unlimited - No Limit
TTITLE6=Whigfield - Saturday Night
TTITLE7=ATC - Around The World (La La La La La)
TTITLE8=Alacazar - Crying At The Discotheque (Radio Edit) (Clean Version)
TTITLE9=Sophie Ellis-Bextor - Murder On The Dancefloor (Album Version)
TTITLE10=Modern Talking - Cheri Cheri Lady
TTITLE11=Bananarama - Venus
TTITLE12=Blondie - Heart Of Glass (2001 Digital Remaster)
TTITLE13=Cher - The Shoop Shoop Song (It's In His Kiss) (Album Version)
TTITLE14=Tom Jones - She's A Lady
TTITLE15=Thelma Houston - Don't Leave Me This Way (Single Version)
TTITLE16=The Temptations - Papa Was A Rollin' Stone (Single Version)
TTITLE17=Evelyn Thomas - High Energy
TTITLE18=CeCe Peniston - Finally (Album Version)
TTITLE19=Rose Royce - Car Wash (Single Edit)
EXTD=
EXTT0=
EXTT1=
EXTT2=
EXTT3=
EXTT4=
EXTT5=
EXTT6=
EXTT7=
EXTT8=
EXTT9=
EXTT10=
EXTT11=
EXTT12=
EXTT13=
EXTT14=
EXTT15=
EXTT16=
EXTT17=
EXTT18=
EXTT19=
PLAYORDER=
